<svg width="300" height="300" viewBox="0 0 300 300" fill="none" xmlns="http://www.w3.org/2000/svg">
<path fill-rule="evenodd" clip-rule="evenodd" d="M284.375 150C284.375 75.7867 224.213 15.625 150 15.625C75.7867 15.625 15.625 75.7867 15.625 150C15.625 171.479 20.6714 191.806 29.6516 209.836C30.9917 212.526 31.2759 215.273 30.6575 217.584L23.2125 245.41C18.1159 264.458 35.5421 281.884 54.59 276.788L82.4155 269.342C84.7267 268.724 87.4738 269.008 90.1644 270.348C108.194 279.329 128.521 284.375 150 284.375C224.213 284.375 284.375 224.213 284.375 150ZM150 34.375C213.858 34.375 265.625 86.1421 265.625 150C265.625 213.858 213.858 265.625 150 265.625C131.487 265.625 114.015 261.281 98.5238 253.565C92.3063 250.468 84.8716 249.276 77.5691 251.23L49.7437 258.675C44.6333 260.042 39.9579 255.367 41.3253 250.256L48.7704 222.431C50.7243 215.128 49.5318 207.694 46.435 201.476C38.7191 185.985 34.375 168.513 34.375 150C34.375 86.1421 86.1421 34.375 150 34.375Z" fill="#40C4FF"/>
</svg>
